<svg width="50" height="50" viewBox="0 0 50 50" fill="none" xmlns="http://www.w3.org/2000/svg">
<path d="M38.628 26.48C38.2862 26.843 37.8189 27.062 37.3213 27.0925L24.4997 27.7867C24.1915 27.8187 23.8801 27.7816 23.5881 27.678C23.2961 27.5744 23.0309 27.407 22.8118 27.1879C22.5927 26.9688 22.4253 26.7036 22.3217 26.4116C22.2181 26.1196 22.181 25.8082 22.213 25.5L22.9072 12.5559C22.9377 12.0583 23.1568 11.591 23.5197 11.2492L29.7672 5.08337H6.12467C5.58319 5.08337 5.06388 5.29847 4.681 5.68136C4.29811 6.06425 4.08301 6.58355 4.08301 7.12504V43.875C4.08301 44.4165 4.29811 44.9358 4.681 45.3187C5.06388 45.7016 5.58319 45.9167 6.12467 45.9167H42.8747C43.4162 45.9167 43.9355 45.7016 44.3184 45.3187C44.7012 44.9358 44.9163 44.4165 44.9163 43.875V20.2325L38.628 26.48ZM34.3813 23.1317L28.583 23.4584C28.3118 23.4699 28.0412 23.425 27.7882 23.3265C27.5353 23.228 27.3056 23.078 27.1136 22.8861C26.9217 22.6941 26.7717 22.4644 26.6732 22.2115C26.5747 21.9585 26.5298 21.6879 26.5413 21.4167L26.868 15.6184C26.8767 15.132 27.0659 14.6663 27.3988 14.3117L40.1797 1.5717C40.3553 1.38507 40.5673 1.23635 40.8025 1.13469C41.0378 1.03303 41.2913 0.980591 41.5476 0.980591C41.8039 0.980591 42.0574 1.03303 42.2927 1.13469C42.5279 1.23635 42.7399 1.38507 42.9155 1.5717L48.428 7.0842C48.6146 7.25983 48.7634 7.47179 48.865 7.70703C48.9667 7.94228 49.0191 8.19585 49.0191 8.45212C49.0191 8.70839 48.9667 8.96196 48.865 9.1972C48.7634 9.43245 48.6146 9.64441 48.428 9.82004L35.688 22.6009C35.3334 22.9338 34.8677 23.123 34.3813 23.1317Z" fill="black"/>
</svg>
