<svg width="49" height="49" viewBox="0 0 49 49" fill="none" xmlns="http://www.w3.org/2000/svg">
<path d="M7.14583 14.2917C7.14583 11.5843 8.22135 8.98776 10.1358 7.07333C12.0502 5.15889 14.6467 4.08337 17.3542 4.08337C20.0616 4.08337 22.6581 5.15889 24.5725 7.07333C26.487 8.98776 27.5625 11.5843 27.5625 14.2917C27.5625 16.9991 26.487 19.5957 24.5725 21.5101C22.6581 23.4245 20.0616 24.5 17.3542 24.5C14.6467 24.5 12.0502 23.4245 10.1358 21.5101C8.22135 19.5957 7.14583 16.9991 7.14583 14.2917ZM10.2083 28.5834C7.50092 28.5834 4.90439 29.6589 2.98995 31.5733C1.07552 33.4878 0 36.0843 0 38.7917L0 42.875H34.7083V38.7917C34.7083 36.0843 33.6328 33.4878 31.7184 31.5733C29.8039 29.6589 27.2074 28.5834 24.5 28.5834H10.2083ZM49 42.875H38.7917V38.7917C38.7917 34.7921 37.1502 31.1763 34.5042 28.5834H38.7917C40.1322 28.5834 41.4597 28.8474 42.6982 29.3604C43.9368 29.8735 45.0621 30.6254 46.0101 31.5733C46.958 32.5213 47.7099 33.6466 48.2229 34.8851C48.736 36.1237 49 37.4511 49 38.7917V42.875ZM31.6458 24.5C30.3995 24.5006 29.1637 24.2729 27.9994 23.8283C30.3527 21.2099 31.6518 17.8122 31.6458 14.2917C31.6513 10.771 30.3514 7.37317 27.9974 4.75508C29.396 4.22098 30.895 4.00105 32.3881 4.11089C33.8812 4.22072 35.3319 4.65764 36.6373 5.39066C37.9427 6.12368 39.071 7.13487 39.942 8.35255C40.813 9.57023 41.4056 10.9646 41.6776 12.4368C41.9496 13.909 41.8945 15.4231 41.5161 16.8716C41.1378 18.3202 40.4454 19.6678 39.4881 20.8189C38.5309 21.97 37.3321 22.8965 35.9769 23.5326C34.6216 24.1688 33.143 24.4991 31.6458 24.5Z" fill="black"/>
</svg>
