<svg width="258" height="138" viewBox="0 0 258 138" fill="none" xmlns="http://www.w3.org/2000/svg">
<rect width="258" height="138" rx="15" fill="#00605C"/>
<g clip-path="url(#clip0_4092_283)">
<path d="M25.5276 74.2197V65.753C25.5276 64.2615 25.3517 62.6804 25 61.1216H29.7372C29.3745 62.6804 29.1986 64.2615 29.1986 65.753V74.2197C29.1986 75.7 29.3745 77.2812 29.7372 78.8399H25C25.3517 77.2812 25.5276 75.7 25.5276 74.2197Z" fill="white"/>
<path d="M32.0123 70.4178C32.0123 68.6011 31.8694 67.0199 31.3418 65.4499C32.5288 65.3826 33.6829 65.2144 34.9469 64.9341C35.1667 65.8536 35.3096 66.8966 35.3096 67.8722V68.1413C35.6943 65.7639 37.354 64.8332 39.3324 64.9453V68.5787C37.9585 68.3095 36.5736 68.489 35.4855 69.2403V75.8455C35.4855 76.9781 35.6283 77.651 35.9691 78.8508H31.5067C31.8364 77.651 32.0123 76.4511 32.0123 75.3296V70.4178Z" fill="white"/>
<path d="M41.3218 75.3298V70.6983C41.3218 68.7582 41.19 67.0986 40.6514 65.4501C42.0692 65.3828 43.5091 65.1922 44.7951 64.9342V75.3298C44.7951 76.4512 44.9379 77.6511 45.2786 78.8398H40.8272C41.1679 77.6398 41.3328 76.4399 41.3328 75.3298H41.3218ZM42.9485 60C44.2784 60 45.0039 60.7401 45.0039 61.9625C45.0039 63.1848 44.2895 63.9586 42.9485 63.9586C41.6076 63.9586 40.8382 63.2185 40.8382 61.9625C40.8382 60.7065 41.5856 60 42.9485 60Z" fill="white"/>
<path d="M46.6965 78.2565L47.0263 74.9707C48.1694 76.2043 49.4993 76.9669 50.9831 76.9669C52.0822 76.9669 52.5658 76.5519 52.5658 75.767C52.5658 75.0941 52.2251 74.5222 51.148 73.8494L49.3564 72.7279C47.5648 71.6065 46.7405 70.3842 46.7405 68.7806C46.7405 66.5153 48.3672 64.9341 51.7525 64.9341C52.9945 64.9341 54.2915 65.1471 55.3905 65.6181L54.764 68.8591C53.8518 67.7264 52.6647 67.1096 51.3678 67.1096C50.3237 67.1096 49.939 67.5133 49.939 68.0965C49.939 68.7806 50.3676 69.2852 51.4227 69.958L53.0604 71.001C54.8959 72.1784 55.7313 73.3335 55.7313 75.0717C55.7313 77.55 54.0387 79.1424 50.6753 79.1424C49.2795 79.1424 47.8946 78.8733 46.6855 78.2565H46.6965Z" fill="white"/>
<path d="M65.0412 75.3186V69.5545C65.0412 68.0069 64.3927 67.5472 63.1616 67.5472C62.4363 67.5472 61.6779 67.7042 60.9744 68.0518V75.3186C60.9744 76.4513 61.1063 77.6512 61.4581 78.8398H57.0066C57.3474 77.6399 57.5122 76.44 57.5122 75.3186V64.2839C57.5122 62.927 57.3803 61.6822 56.8418 60.4598C58.2596 60.3926 59.5676 60.258 60.9854 60.0449V67.3453C61.6889 65.8651 63.0957 64.9343 64.9532 64.9343C67.3603 64.9343 68.5254 66.4258 68.5254 69.2069V75.3186C68.5254 76.44 68.7013 77.6624 69.009 78.8398H64.5795C64.8763 77.6512 65.0631 76.44 65.0631 75.3186H65.0412Z" fill="white"/>
<path d="M74.8011 74.2197V65.753C74.8011 64.2615 74.6252 62.6804 74.2734 61.1216H79.0107C78.648 62.6804 78.4721 64.2615 78.4721 65.753V74.2197C78.4721 75.7 78.648 77.2812 79.0107 78.8399H74.2734C74.6252 77.2812 74.8011 75.7 74.8011 74.2197Z" fill="white"/>
<path d="M88.8254 75.3184V69.5544C88.8254 68.0068 88.1768 67.547 86.9458 67.547C86.2205 67.547 85.462 67.704 84.7586 68.0516V75.3184C84.7586 76.4511 84.9015 77.651 85.2422 78.8396H80.7908C81.1316 77.6397 81.2964 76.4398 81.2964 75.3184V70.1824C81.2964 68.6572 81.1645 67.1545 80.626 65.45C81.9229 65.3715 83.11 65.192 84.4289 64.9453C84.5937 65.6854 84.7257 66.4929 84.7586 67.3676C85.462 65.8761 86.8689 64.9453 88.7374 64.9453C91.1554 64.9453 92.3096 66.4368 92.3096 69.1955V75.3184C92.3096 76.4398 92.4853 77.6622 92.7931 78.8396H88.3527C88.6714 77.651 88.8473 76.4398 88.8473 75.3184H88.8254Z" fill="white"/>
<path d="M94.0898 72.4366C94.0898 66.4931 97.7499 64.9343 100.937 64.9343C101.564 64.9343 102.113 64.9792 102.597 65.0913V64.4745C102.597 63.0391 102.454 61.7719 101.927 60.4935C103.3 60.4262 104.685 60.2692 106.082 60.0562V72.1786C106.082 74.6346 106.29 76.7204 106.774 78.5034C105.455 78.6044 104.356 78.8062 102.883 79.1426C102.806 78.3464 102.751 77.5278 102.696 76.7428C102.135 78.2118 100.871 79.1426 99.0469 79.1426C96.1013 79.1426 94.0898 76.7316 94.0898 72.4478V72.4366ZM100.707 76.6755C101.355 76.6755 102.025 76.5073 102.674 76.1373C102.63 75.1392 102.608 74.1972 102.608 73.3562V67.4126C102.113 67.065 101.487 66.8744 100.783 66.8744C98.5853 66.8744 97.618 68.478 97.684 71.8983C97.7499 75.2289 98.8271 76.6979 100.707 76.6979V76.6755Z" fill="white"/>
<path d="M107.939 71.9878C107.939 67.3003 110.489 64.9341 114.204 64.9341C118.919 64.9341 119.546 68.9263 118.908 72.0663H111.566C111.588 75.1053 112.764 76.5519 115.138 76.5519C116.424 76.5519 117.589 76.1595 118.601 75.4754L119.161 77.5949C117.831 78.5817 116.128 79.1424 114.116 79.1424C110.038 79.1424 107.95 76.1483 107.95 71.999L107.939 71.9878ZM115.776 70.0478C116.018 67.8049 115.468 66.7844 114.006 66.7844C112.698 66.7844 111.709 67.6255 111.577 70.2384L115.776 70.0365V70.0478Z" fill="white"/>
<path d="M124.491 78.9294V80.2526C124.491 81.2058 124.712 82.417 125.14 83.6056H120.546C120.875 82.417 121.03 81.2058 121.03 80.2526V70.2496C121.03 68.4666 120.908 67.1657 120.37 65.4611C121.81 65.3602 122.733 65.1808 124.173 64.9453C124.327 65.6406 124.447 66.4031 124.491 67.2106C125.096 65.8536 126.404 64.9341 128.195 64.9341C131.141 64.9341 133.021 67.3227 133.021 71.4046C133.021 77.5276 129.36 79.12 126.162 79.12C125.58 79.12 125.019 79.0639 124.502 78.9294H124.491ZM126.294 77.1911C128.69 77.1911 129.448 75.2623 129.426 71.999C129.393 68.6011 128.173 67.4236 126.481 67.4236C125.832 67.4236 125.14 67.5918 124.491 67.9843V76.6641C124.997 77.0342 125.602 77.1911 126.283 77.1911H126.294Z" fill="white"/>
<path d="M134.472 71.9878C134.472 67.3003 137.022 64.9341 140.737 64.9341C145.452 64.9341 146.079 68.9263 145.43 72.0663H138.088C138.11 75.1053 139.286 76.5519 141.66 76.5519C142.946 76.5519 144.111 76.1595 145.122 75.4754L145.683 77.5949C144.353 78.5817 142.649 79.1424 140.638 79.1424C136.571 79.1424 134.472 76.1483 134.472 71.999V71.9878ZM142.309 70.0478C142.55 67.8049 142.001 66.7844 140.539 66.7844C139.231 66.7844 138.242 67.6255 138.11 70.2384L142.309 70.0365V70.0478Z" fill="white"/>
<path d="M155.278 75.3184V69.5544C155.278 68.0068 154.63 67.547 153.399 67.547C152.674 67.547 151.915 67.704 151.211 68.0516V75.3184C151.211 76.4511 151.354 77.651 151.695 78.8396H147.244C147.584 77.6397 147.749 76.4398 147.749 75.3184V70.1824C147.749 68.6572 147.617 67.1545 147.079 65.45C148.376 65.3715 149.563 65.192 150.882 64.9453C151.047 65.6854 151.178 66.4929 151.211 67.3676C151.915 65.8761 153.322 64.9453 155.191 64.9453C157.609 64.9453 158.762 66.4368 158.762 69.1955V75.3184C158.762 76.4398 158.938 77.6622 159.246 78.8396H154.806C155.124 77.651 155.3 76.4398 155.3 75.3184H155.278Z" fill="white"/>
<path d="M160.554 72.4366C160.554 66.4931 164.214 64.9343 167.401 64.9343C168.028 64.9343 168.577 64.9792 169.061 65.0913V64.4745C169.061 63.0391 168.918 61.7719 168.391 60.4935C169.764 60.4262 171.149 60.2692 172.546 60.0562V72.1786C172.546 74.6346 172.754 76.7204 173.238 78.5034C171.919 78.6044 170.82 78.8062 169.346 79.1426C169.27 78.3464 169.215 77.5278 169.16 76.7428C168.599 78.2118 167.335 79.1426 165.511 79.1426C162.565 79.1426 160.554 76.7316 160.554 72.4478V72.4366ZM167.171 76.6755C167.819 76.6755 168.489 76.5073 169.138 76.1373C169.094 75.1392 169.072 74.1972 169.072 73.3562V67.4126C168.577 67.065 167.951 66.8744 167.247 66.8744C165.049 66.8744 164.082 68.478 164.148 71.8983C164.214 75.2289 165.291 76.6979 167.171 76.6979V76.6755Z" fill="white"/>
<path d="M174.392 71.9878C174.392 67.3003 176.941 64.9341 180.656 64.9341C185.371 64.9341 185.998 68.9263 185.36 72.0663H178.018C178.04 75.1053 179.216 76.5519 181.59 76.5519C182.876 76.5519 184.041 76.1595 185.053 75.4754L185.614 77.5949C184.283 78.5817 182.58 79.1424 180.568 79.1424C176.491 79.1424 174.403 76.1483 174.403 71.999L174.392 71.9878ZM182.228 70.0478C182.47 67.8049 181.92 66.7844 180.458 66.7844C179.15 66.7844 178.162 67.6255 178.029 70.2384L182.228 70.0365V70.0478Z" fill="white"/>
<path d="M195.209 75.3184V69.5544C195.209 68.0068 194.561 67.547 193.33 67.547C192.604 67.547 191.846 67.704 191.142 68.0516V75.3184C191.142 76.4511 191.285 77.651 191.626 78.8396H187.174C187.515 77.6397 187.68 76.4398 187.68 75.3184V70.1824C187.68 68.6572 187.548 67.1545 187.01 65.45C188.307 65.3715 189.494 65.192 190.813 64.9453C190.977 65.6854 191.109 66.4929 191.142 67.3676C191.846 65.8761 193.253 64.9453 195.121 64.9453C197.539 64.9453 198.694 66.4368 198.694 69.1955V75.3184C198.694 76.4398 198.869 77.6622 199.177 78.8396H194.736C195.055 77.651 195.231 76.4398 195.231 75.3184H195.209Z" fill="white"/>
<path d="M201.903 74.9597V67.2556H200.067V65.2482C200.683 65.2482 201.298 65.237 201.903 65.237C201.903 64.239 201.87 63.2409 201.694 62.1531C202.54 61.6821 203.936 61.1775 205.376 61.0205V65.1585C206.596 65.1249 207.761 65.08 208.871 64.9903C208.915 65.865 208.871 66.6052 208.75 67.3565C207.695 67.3117 206.563 67.2892 205.387 67.278V74.9934C205.387 76.2157 205.87 76.7315 206.86 76.7315C207.475 76.7315 208.146 76.5746 208.827 76.3166L209.201 77.9539C208.256 78.7277 206.673 79.1314 205.343 79.1314C203.035 79.1314 201.914 78.0099 201.914 74.9597H201.903Z" fill="white"/>
<path d="M225.765 60.7287C223.368 60.7287 221.599 61.1437 219.511 61.1437C218.038 61.1437 216.104 60.897 214.829 60.2129L214.378 61.3455C215.796 62.0857 217.719 62.3772 219.511 62.3772C221.621 62.3772 223.512 61.8838 225.765 61.8838C228.259 61.8838 230.062 63.0501 230.062 65.2593C230.062 66.1564 229.733 66.9638 229.205 67.8161L221.874 79.6582C222.742 80.1853 223.589 80.6002 224.533 80.9927L230.348 68.4665C230.864 67.3451 231.227 66.3022 231.227 65.2032C231.227 62.4557 229.007 60.74 225.775 60.74L225.765 60.7287Z" fill="white"/>
<path d="M220.884 78.9857L228.26 67.3006C228.699 66.6053 228.93 66.0221 228.93 65.3269C228.93 64.0484 228.084 62.9495 225.765 62.9495C223.446 62.9495 221.775 63.4877 219.511 63.4877C217.697 63.4877 215.708 63.2298 214.092 62.4448V65.2932C214.609 65.4951 215.169 65.6521 215.763 65.7754C215.026 70.9676 216.785 75.8345 220.884 78.9745V78.9857ZM216.785 65.9436C217.158 65.9885 217.532 66.0109 217.906 66.0221C217.357 69.6107 218.225 73.659 221.324 76.5073L220.72 77.4718C217.488 74.5673 216.137 70.2835 216.785 65.9436ZM224.831 70.8891L224.171 71.9432L222.314 65.4166C222.61 65.3381 222.907 65.2708 223.204 65.1923L224.831 70.9003V70.8891ZM224.171 64.9344C224.501 64.8446 224.798 64.7774 225.061 64.7101L226.204 68.6911L225.545 69.7453L224.171 64.9344ZM223.446 73.0983L222.797 74.1412L220.412 65.8315C220.72 65.7754 221.017 65.7194 221.324 65.6521L223.446 73.0983ZM222.071 75.2962L221.885 75.599C219.137 72.9637 218.411 69.3079 218.95 65.9997C219.104 65.9997 219.258 65.9773 219.401 65.9549L222.061 75.285L222.071 75.2962ZM227.787 65.596C227.787 65.9997 227.611 66.4258 227.392 66.7959L226.93 67.5473L226.073 64.5419C226.237 64.5307 226.391 64.5194 226.545 64.5194C227.249 64.5194 227.798 64.8895 227.798 65.6072L227.787 65.596Z" fill="white"/>
<path d="M220.818 79.9834C220.016 79.9834 219.356 80.6451 219.356 81.43C219.356 82.2151 220.016 82.944 220.818 82.8879C221.587 82.8879 222.203 82.2487 222.203 81.43C222.203 80.6114 221.576 79.9834 220.818 79.9834Z" fill="white"/>
</g>
<defs>
<clipPath id="clip0_4092_283">
<rect width="207" height="24" fill="white" transform="translate(25 60)"/>
</clipPath>
</defs>
</svg>
