<svg width="258" height="138" viewBox="0 0 258 138" fill="none" xmlns="http://www.w3.org/2000/svg">
<rect width="258" height="138" rx="15" fill="#724491"/>
<g clip-path="url(#clip0_4092_282)">
<path d="M46 52.0754C46.4326 50.4923 47.1674 49.1507 48.6302 48.3184C49.0218 48.0956 50.1448 47.5986 50.5447 47.5986H77.4839C74.8139 58.4611 84.7098 68.7541 95.6629 66.6908V78.2119C95.6629 80.8428 92.9312 83.286 90.3329 83.2863L51.0738 83.2791C49.115 83.0853 47.4566 82.0317 46.5432 80.3024L46 78.6727V52.0754ZM74.8496 69.1909C77.4014 66.9554 78.3928 63.5555 76.6676 60.4623C74.6284 56.8061 69.6823 55.9322 66.4882 58.6628C63.1346 61.5297 63.5322 66.4479 66.8133 69.1909C64.9196 69.5024 59.788 72.966 62.0426 75.1182C62.3335 75.3959 62.7836 75.6233 63.1912 75.6441C68.0591 75.3022 73.5518 76.1 78.3453 75.6494C80.181 75.4768 80.5953 73.8108 79.6219 72.3882C78.586 70.8743 76.596 69.6758 74.8496 69.1909Z" fill="white"/>
<path d="M58.2512 94.9998C56.9422 94.5496 56.3228 93.0776 57.1964 91.9046C57.3738 91.6664 58.0561 91.1814 58.317 91.1814H64.4426V87.0996H77.0888V91.1814H83.3461C83.399 91.1814 84.1604 91.6236 84.2582 91.718C85.4002 92.8212 84.7071 94.5849 83.2802 94.9998H58.2512Z" fill="white"/>
<path d="M91.2883 39.079C105.518 37.6305 110.209 56.5182 97.9493 62.0638C88.4517 66.36 78.3284 57.4185 81.3683 47.4657C82.6718 43.1983 86.79 39.5369 91.2883 39.079ZM91.2797 46.576C90.6727 46.6986 90.1374 47.3632 90.0288 47.9586C89.8394 48.997 89.8776 52.7314 89.9978 53.8536C90.1561 55.33 91.4372 56.0077 92.7562 55.2932C93.4413 54.9221 96.4211 52.844 96.9122 52.337C97.8622 51.3564 97.5206 50.3188 96.5736 49.5193C95.8945 48.9459 93.3429 47.0928 92.6192 46.7565C92.1679 46.5468 91.7799 46.475 91.2797 46.576Z" fill="white"/>
</g>
<path d="M131.216 66L126.896 51.744L126.248 49.656H129.296L133.712 64.296L132.224 64.152L136.04 49.656H139.208L134.744 66H131.216ZM120.8 66L116.336 49.656H119.504L123.32 64.152L121.832 64.296L126.248 49.656H129.296L128.672 51.744L124.328 66H120.8ZM144.527 66.24C143.359 66.24 142.335 65.992 141.455 65.496C140.575 64.984 139.895 64.272 139.415 63.36C138.935 62.448 138.695 61.376 138.695 60.144C138.695 58.928 138.935 57.864 139.415 56.952C139.895 56.024 140.575 55.304 141.455 54.792C142.335 54.264 143.359 54 144.527 54C145.711 54 146.735 54.264 147.599 54.792C148.479 55.32 149.159 56.048 149.639 56.976C150.119 57.888 150.359 58.936 150.359 60.12C150.359 60.296 150.351 60.472 150.335 60.648C150.335 60.808 150.319 60.944 150.287 61.056H141.263V58.704H147.911L147.431 59.832C147.431 58.84 147.191 58.032 146.711 57.408C146.247 56.784 145.519 56.472 144.527 56.472C143.663 56.472 142.967 56.744 142.439 57.288C141.911 57.816 141.647 58.528 141.647 59.424V60.696C141.647 61.64 141.911 62.384 142.439 62.928C142.983 63.456 143.719 63.72 144.647 63.72C145.463 63.72 146.103 63.552 146.567 63.216C147.031 62.88 147.431 62.464 147.767 61.968L149.951 63.216C149.423 64.192 148.703 64.944 147.791 65.472C146.895 65.984 145.807 66.24 144.527 66.24ZM158.094 66.288C157.07 66.288 156.166 66.032 155.382 65.52C154.614 65.008 154.014 64.296 153.582 63.384C153.15 62.456 152.934 61.368 152.934 60.12C152.934 58.824 153.142 57.72 153.558 56.808C153.99 55.896 154.59 55.2 155.358 54.72C156.126 54.24 157.03 54 158.07 54C159.142 54 160.086 54.256 160.902 54.768C161.718 55.28 162.35 56 162.798 56.928C163.262 57.84 163.494 58.904 163.494 60.12C163.494 61.32 163.262 62.384 162.798 63.312C162.35 64.24 161.718 64.968 160.902 65.496C160.102 66.024 159.166 66.288 158.094 66.288ZM151.782 66V49.656H154.926V57.336H154.686V63.216H154.926L154.134 66H151.782ZM157.542 63.384C158.342 63.384 158.998 63.08 159.51 62.472C160.038 61.864 160.302 61.08 160.302 60.12C160.302 59.16 160.038 58.384 159.51 57.792C158.998 57.184 158.342 56.88 157.542 56.88C156.742 56.88 156.078 57.184 155.55 57.792C155.022 58.384 154.758 59.168 154.758 60.144C154.758 61.104 155.022 61.888 155.55 62.496C156.078 63.088 156.742 63.384 157.542 63.384ZM168.184 66H165.04V54.264H168.184V66ZM164.704 50.616C164.704 50.04 164.872 49.576 165.208 49.224C165.56 48.856 166.024 48.672 166.6 48.672C167.176 48.672 167.632 48.856 167.968 49.224C168.32 49.576 168.496 50.04 168.496 50.616C168.496 51.16 168.32 51.608 167.968 51.96C167.632 52.312 167.176 52.488 166.6 52.488C166.024 52.488 165.56 52.312 165.208 51.96C164.872 51.608 164.704 51.16 164.704 50.616ZM177.478 54C178.278 54 178.918 54.136 179.398 54.408C179.894 54.68 180.262 55.048 180.502 55.512C180.758 55.976 180.926 56.504 181.006 57.096C181.086 57.672 181.126 58.272 181.126 58.896V66H177.982V58.872C177.982 58.152 177.838 57.672 177.55 57.432C177.278 57.192 176.926 57.072 176.494 57.072C176.094 57.072 175.686 57.152 175.27 57.312C174.854 57.456 174.462 57.672 174.094 57.96C173.742 58.232 173.438 58.544 173.182 58.896L172.774 57.264H173.566V66H170.422V54.264H172.774L173.422 56.52L172.414 56.472C172.83 55.992 173.302 55.568 173.83 55.2C174.374 54.832 174.95 54.544 175.558 54.336C176.166 54.112 176.806 54 177.478 54ZM186.717 66.336C185.853 66.336 185.093 66.176 184.437 65.856C183.781 65.52 183.277 65.056 182.925 64.464C182.573 63.856 182.397 63.152 182.397 62.352C182.397 61.552 182.581 60.856 182.949 60.264C183.333 59.672 183.853 59.216 184.509 58.896C185.165 58.56 185.909 58.392 186.741 58.392C187.877 58.392 188.797 58.656 189.501 59.184C190.221 59.696 190.709 60.432 190.965 61.392L189.501 61.2V58.368C189.501 57.92 189.341 57.52 189.021 57.168C188.701 56.816 188.181 56.64 187.461 56.64C187.013 56.64 186.517 56.696 185.973 56.808C185.429 56.904 184.861 57.096 184.269 57.384L183.333 55.08C184.021 54.744 184.749 54.48 185.517 54.288C186.301 54.096 187.085 54 187.869 54C188.941 54 189.829 54.192 190.533 54.576C191.237 54.96 191.765 55.488 192.117 56.16C192.469 56.832 192.645 57.6 192.645 58.464V66H190.149L189.477 63.768L190.965 63.336C190.693 64.28 190.189 65.016 189.453 65.544C188.733 66.072 187.821 66.336 186.717 66.336ZM187.581 63.936C188.157 63.936 188.621 63.792 188.973 63.504C189.325 63.216 189.501 62.832 189.501 62.352C189.501 61.856 189.325 61.472 188.973 61.2C188.621 60.912 188.157 60.768 187.581 60.768C187.005 60.768 186.541 60.912 186.189 61.2C185.837 61.472 185.661 61.856 185.661 62.352C185.661 62.832 185.837 63.216 186.189 63.504C186.541 63.792 187.005 63.936 187.581 63.936ZM197.04 54.264L197.832 57.504V66H194.688V54.264H197.04ZM197.184 59.112L196.608 58.848V56.448L196.824 56.184C197 55.896 197.264 55.584 197.616 55.248C197.984 54.912 198.4 54.624 198.864 54.384C199.344 54.128 199.84 54 200.352 54C200.608 54 200.84 54.016 201.048 54.048C201.256 54.08 201.416 54.136 201.528 54.216V57.072H200.76C199.72 57.072 198.92 57.24 198.36 57.576C197.8 57.896 197.408 58.408 197.184 59.112ZM116.624 91L119.552 74.656H122.36L126.464 86.08H126.368L130.472 74.656H133.28L136.208 91H133.016L131.84 83.536C131.664 82.528 131.512 81.52 131.384 80.512C131.272 79.488 131.184 78.472 131.12 77.464H131.984C131.712 78.6 131.44 79.648 131.168 80.608C130.912 81.552 130.608 82.52 130.256 83.512L127.64 90.784H125.192L122.576 83.512C122.224 82.52 121.912 81.552 121.64 80.608C121.368 79.648 121.104 78.6 120.848 77.464H121.688C121.64 78.472 121.552 79.488 121.424 80.512C121.312 81.52 121.168 82.528 120.992 83.536L119.816 91H116.624ZM141.28 91.336C140.416 91.336 139.656 91.176 139 90.856C138.344 90.52 137.84 90.056 137.488 89.464C137.136 88.856 136.96 88.152 136.96 87.352C136.96 86.552 137.144 85.856 137.512 85.264C137.896 84.672 138.416 84.216 139.072 83.896C139.728 83.56 140.472 83.392 141.304 83.392C142.44 83.392 143.36 83.656 144.064 84.184C144.784 84.696 145.272 85.432 145.528 86.392L144.064 86.2V83.368C144.064 82.92 143.904 82.52 143.584 82.168C143.264 81.816 142.744 81.64 142.024 81.64C141.576 81.64 141.08 81.696 140.536 81.808C139.992 81.904 139.424 82.096 138.832 82.384L137.896 80.08C138.584 79.744 139.312 79.48 140.08 79.288C140.864 79.096 141.648 79 142.432 79C143.504 79 144.392 79.192 145.096 79.576C145.8 79.96 146.328 80.488 146.68 81.16C147.032 81.832 147.208 82.6 147.208 83.464V91H144.712L144.04 88.768L145.528 88.336C145.256 89.28 144.752 90.016 144.016 90.544C143.296 91.072 142.384 91.336 141.28 91.336ZM142.144 88.936C142.72 88.936 143.184 88.792 143.536 88.504C143.888 88.216 144.064 87.832 144.064 87.352C144.064 86.856 143.888 86.472 143.536 86.2C143.184 85.912 142.72 85.768 142.144 85.768C141.568 85.768 141.104 85.912 140.752 86.2C140.4 86.472 140.224 86.856 140.224 87.352C140.224 87.832 140.4 88.216 140.752 88.504C141.104 88.792 141.568 88.936 142.144 88.936ZM152.311 89.92L147.631 79.264H150.847L155.191 89.176L152.311 89.92ZM149.623 95.56L156.799 79.264H160.015L152.839 95.56H149.623ZM176.534 78.928C176.534 79.6 176.438 80.248 176.246 80.872C176.054 81.496 175.742 82.136 175.31 82.792C174.878 83.448 174.31 84.16 173.606 84.928L169.526 89.512L169.238 88H176.726V91H166.502V88.384L170.87 83.608C171.542 82.872 172.062 82.256 172.43 81.76C172.798 81.264 173.054 80.824 173.198 80.44C173.342 80.056 173.414 79.672 173.414 79.288C173.414 78.712 173.238 78.264 172.886 77.944C172.534 77.608 172.11 77.44 171.614 77.44C171.102 77.44 170.574 77.608 170.03 77.944C169.502 78.28 168.942 78.856 168.35 79.672L166.094 77.992C166.542 77.256 167.038 76.624 167.582 76.096C168.126 75.552 168.734 75.136 169.406 74.848C170.094 74.544 170.846 74.392 171.662 74.392C172.686 74.392 173.558 74.592 174.278 74.992C174.998 75.392 175.55 75.936 175.934 76.624C176.334 77.312 176.534 78.08 176.534 78.928ZM183.828 91.288C182.644 91.288 181.612 90.952 180.732 90.28C179.852 89.608 179.172 88.64 178.692 87.376C178.212 86.112 177.972 84.6 177.972 82.84C177.972 81.096 178.212 79.592 178.692 78.328C179.172 77.064 179.852 76.096 180.732 75.424C181.612 74.736 182.644 74.392 183.828 74.392C185.012 74.392 186.036 74.736 186.9 75.424C187.78 76.096 188.46 77.064 188.94 78.328C189.42 79.592 189.66 81.096 189.66 82.84C189.66 84.6 189.42 86.112 188.94 87.376C188.46 88.64 187.78 89.608 186.9 90.28C186.036 90.952 185.012 91.288 183.828 91.288ZM183.828 88.216C184.468 88.216 184.98 87.976 185.364 87.496C185.748 87.016 186.028 86.368 186.204 85.552C186.38 84.736 186.468 83.832 186.468 82.84C186.468 81.96 186.38 81.112 186.204 80.296C186.028 79.464 185.748 78.792 185.364 78.28C184.98 77.752 184.468 77.488 183.828 77.488C183.156 77.488 182.62 77.752 182.22 78.28C181.836 78.792 181.556 79.464 181.38 80.296C181.22 81.112 181.14 81.96 181.14 82.84C181.14 83.832 181.22 84.736 181.38 85.552C181.556 86.368 181.844 87.016 182.244 87.496C182.644 87.976 183.172 88.216 183.828 88.216ZM200.94 78.928C200.94 79.6 200.844 80.248 200.652 80.872C200.46 81.496 200.148 82.136 199.716 82.792C199.284 83.448 198.716 84.16 198.012 84.928L193.932 89.512L193.644 88H201.132V91H190.908V88.384L195.276 83.608C195.948 82.872 196.468 82.256 196.836 81.76C197.204 81.264 197.46 80.824 197.604 80.44C197.748 80.056 197.82 79.672 197.82 79.288C197.82 78.712 197.644 78.264 197.292 77.944C196.94 77.608 196.516 77.44 196.02 77.44C195.508 77.44 194.98 77.608 194.436 77.944C193.908 78.28 193.348 78.856 192.756 79.672L190.5 77.992C190.948 77.256 191.444 76.624 191.988 76.096C192.532 75.552 193.14 75.136 193.812 74.848C194.5 74.544 195.252 74.392 196.068 74.392C197.092 74.392 197.964 74.592 198.684 74.992C199.404 75.392 199.956 75.936 200.34 76.624C200.74 77.312 200.94 78.08 200.94 78.928ZM211.852 80.104V91H208.66V85.12L208.3 84.232L209.788 80.104H211.852ZM201.676 87.088V85.192L205.564 74.656H208.708L204.796 85.456L204.436 84.04H214.06V87.088H201.676Z" fill="#62CBC9"/>
<defs>
<clipPath id="clip0_4092_282">
<rect width="59" height="56" fill="white" transform="translate(46 39)"/>
</clipPath>
</defs>
</svg>
