<svg width="94" height="94" viewBox="0 0 94 94" fill="none" xmlns="http://www.w3.org/2000/svg">
<g clip-path="url(#clip0_2005_98)">
<path d="M94 1.89851V74.3296C93.5297 75.1295 92.529 76.3518 91.5217 76.3518H76.3763V91.5182C76.3763 92.527 75.1557 93.5291 74.3569 94H72.7047L64.719 88.7294L56.5497 94H55.081C54.3618 93.6318 53.0616 92.5832 53.0616 91.7021V76.3518H2.48541C1.64154 76.3518 0.308134 75.1591 0.0934407 74.3351L0 2.53485C0.0336239 1.35573 0.78183 0.391671 1.87459 0H92.1325C93.1171 0.32129 93.5463 1.03856 94 1.89851ZM19.5969 17.7469C16.9018 18.7776 17.2508 22.5984 20.1093 23.0394L73.7215 23.0466C76.8568 22.8 77.1797 18.3799 74.0864 17.7035L19.5969 17.7469ZM57.7725 40.074C59.4038 38.4444 58.4474 35.5112 56.0913 35.356L20.1049 35.3524C16.7179 36.1195 17.0997 40.7362 20.662 40.8695L55.5465 40.8782C56.2634 40.8154 57.2554 40.5906 57.7725 40.074ZM64.0388 50.1193C55.2472 50.6243 50.1991 60.4954 54.9301 67.9546C59.8004 75.6335 71.5796 74.8314 75.2486 66.4903C78.7524 58.5245 72.7193 49.6207 64.0388 50.1193ZM40.1489 57.7221C41.8095 56.0552 40.5441 53.1906 38.2627 53.0256C32.6349 53.4013 26.1938 52.4498 20.662 53.0069C17.0649 53.3691 16.7318 57.3976 19.9373 58.5079L38.4712 58.5238C38.9478 58.465 39.8146 58.0577 40.1489 57.7221Z" fill="#F18700"/>
</g>
<defs>
<clipPath id="clip0_2005_98">
<rect width="94" height="94" fill="white"/>
</clipPath>
</defs>
</svg>
