<svg width="90" height="103" viewBox="0 0 90 103" fill="none" xmlns="http://www.w3.org/2000/svg">
<g clip-path="url(#clip0_2005_112)">
<path d="M63.1614 0C65.6348 3.89595 69.5484 7.13993 73.9541 8.6536C76.2889 9.45577 78.7536 9.75447 81.2136 9.86571C84.1287 9.99753 87.0835 9.7508 90 9.85741V58.4404C90 64.7553 84.5177 70.8969 79.1753 73.6003C73.1278 76.6604 66.6973 79.0617 60.6204 82.0758L57.7255 81.0544C59.1673 74.9406 55.6611 68.5713 49.5968 66.7327C49.1537 66.5983 47.6599 66.1855 47.3206 66.1855H39.1479V57.4346C39.1479 56.7501 38.2913 54.3332 37.972 53.5776C36.6658 50.4859 33.831 47.5039 30.6726 46.2695V9.85743C36.2762 9.72095 42.1456 10.4337 47.4752 8.40219C51.5643 6.84351 55.2304 3.68999 57.5112 0L63.1614 0ZM69.5456 18.9247L56.6031 31.7815L51.127 26.3681L46.8197 30.4775L56.6031 40.2307L73.8528 23.0342L69.5456 18.9247ZM72.4439 52.707H48.2286V58.7422H72.4439V52.707Z" fill="#724491"/>
<path d="M9.08071 75.8418H0V103H9.08071V75.8418Z" fill="#724491"/>
<path d="M33.0942 72.2207H47.1188C49.5088 72.2207 52.5592 76.1394 52.0623 78.5529C50.5457 84.8422 50.5637 92.3885 48.8938 98.5332C48.3941 100.372 46.1027 103 44.0919 103H15.1345V74.1318L24.417 63.6709V50.8965C27.5444 50.7191 30.7044 52.6161 32.1742 55.3341C32.3721 55.7002 33.0942 57.3528 33.0942 57.6357V72.2207Z" fill="#724491"/>
</g>
<defs>
<clipPath id="clip0_2005_112">
<rect width="90" height="103" fill="white"/>
</clipPath>
</defs>
</svg>
