<svg width="86" height="96" viewBox="0 0 86 96" fill="none" xmlns="http://www.w3.org/2000/svg">
<g clip-path="url(#clip0_2005_102)">
<path d="M52.5573 0L52.5575 14.4585C52.4725 15.2519 53.3885 16.4936 54.1532 16.4936H69.1543V94.7846C69.1543 95.275 67.9359 96.1665 67.3558 95.973L1.79521 95.9772C0.800315 96.0047 0.453709 95.3935 0 94.6775V0H52.5573ZM20.579 25.7501C18.7427 26.3679 19.0112 28.9705 20.9544 29.1362L48.2001 29.1364C50.4751 28.867 50.3588 25.9084 48.2001 25.6994L20.579 25.7501ZM13.7699 37.7454C11.9336 38.3632 12.2022 40.9659 14.1454 41.1316L55.0091 41.1318C57.2842 40.8623 57.1679 37.9038 55.0091 37.6948L13.7699 37.7454ZM13.7699 49.7408C11.9336 50.3586 12.2022 52.9612 14.1454 53.1269L55.0091 53.1271C57.2842 52.8577 57.1679 49.8991 55.0091 49.6901L13.7699 49.7408ZM32.6174 77.3943C32.8105 77.2089 33.0521 77.0463 33.2942 77.3275C34.7569 79.026 34.9614 83.2537 37.8632 83.8717C41.758 84.7011 42.688 79.0189 45.0335 77.1293C47.4346 77.7405 47.9607 86.023 50.9641 83.5411C52.3521 82.3941 50.4376 78.6637 49.6676 77.3444C48.8289 75.9075 47.1932 73.8342 45.4285 73.6839C41.6613 73.3629 40.7105 78.1702 38.6201 80.3222C37.0585 78.4252 36.9555 75.2062 34.4484 74.0294C30.7914 72.3128 29.0771 77.2868 27.4982 79.4117C26.339 80.9718 25.7575 80.835 24.699 79.178C28.6052 75.8226 33.4706 71.0036 30.1769 65.4774C26.7386 59.7087 18.5558 62.645 17.8999 68.8924C17.5449 72.2738 18.6138 75.2 19.8053 78.2712C19.7528 78.593 15.3628 80.4191 14.7839 80.9642C13.5653 82.1117 14.5 84.2775 16.2257 83.9282C17.3847 83.6936 21.0091 81.1709 21.6024 81.1855C22.4473 81.5203 22.9187 82.4887 23.6325 82.9899C26.1908 84.7862 28.4641 83.7908 30.2151 81.5041C30.9984 80.4812 31.8541 78.1271 32.6174 77.3943Z" fill="#F6B801"/>
<path d="M74.0483 75.6136V32.5588H85.645L85.9642 32.8801V75.2922L85.645 75.6136H74.0483Z" fill="#F6B801"/>
<path d="M85.3258 78.8264L81.5427 91.6188C80.6674 93.0998 78.5111 92.8458 78.14 91.0939L74.4739 78.8264L85.3258 78.8264Z" fill="#F6B801"/>
<path d="M74.1547 29.3458L73.8701 28.9912C73.6267 25.772 75.1717 21.7734 78.5071 20.8767C82.9247 19.689 85.6237 23.5703 85.9356 27.5518C85.9823 28.1479 86.15 28.9355 85.6449 29.3458H74.1547Z" fill="#F6B801"/>
<path d="M68.0905 13.0664H55.9619V1.07104L68.0905 13.0664Z" fill="#F6B801"/>
<path d="M22.5664 76.0316C21.0701 72.9085 19.7869 66.1277 24.8187 65.7748C26.3779 65.6654 27.7529 67.3757 27.8769 68.8675C28.0328 70.7425 26.8264 72.3712 25.6433 73.6889C25.2322 74.1467 23.029 76.3488 22.5664 76.0316Z" fill="#F6B801"/>
</g>
<defs>
<clipPath id="clip0_2005_102">
<rect width="86" height="96" fill="white"/>
</clipPath>
</defs>
</svg>
