<svg width="111" height="81" viewBox="0 0 111 81" fill="none" xmlns="http://www.w3.org/2000/svg">
<g clip-path="url(#clip0_2005_119)">
<path d="M100.354 14.9327L60.1467 28.297L0 14.1409L49.3366 0.519066L52.2075 0L111 11.0893L105.328 13.2722L105.335 25.907C107.455 27.7744 107.663 30.4417 107.352 33.1188C106.826 37.6592 101.275 38.9639 99.029 35.1452C98.4009 34.077 98.3557 30.1376 98.556 28.8587C98.7529 27.6012 100.354 26.2959 100.354 26.1303L100.354 14.9327Z" fill="#62CBC9"/>
<path d="M84.4975 25.3386V43.3228C84.4975 44.5319 80.296 46.3065 79.2389 46.6676C75.2235 48.0389 70.5046 48.5778 66.2813 48.6197L24.0144 33.7086V24.6599L60.3826 33.2645L84.4975 25.3386Z" fill="#62CBC9"/>
<path d="M55.9518 69.2246C56.4827 66.9665 57.623 64.9423 58.7098 62.9206C59.3645 62.974 62.5941 63.9433 62.5001 64.5502C62.4578 64.8239 60.6811 67.4586 60.3674 68.0889C58.611 71.6177 57.2503 75.6946 56.8594 79.6297L53.3089 78.5402L27.5117 65.6189C26.1504 64.1516 27.7576 58.9096 28.0939 57.0083L55.9518 69.2246Z" fill="#62CBC9"/>
<path d="M62.2971 52.2616C62.3472 52.5557 62.3578 52.5502 62.1556 52.7304C61.5886 53.2356 60.4787 53.8021 59.8026 54.4042C58.2069 55.8256 56.5469 57.6798 55.3171 59.426C54.9661 59.9244 53.3963 62.816 53.1266 62.8368L29.9224 52.3485C30.8293 50.307 32.3144 48.2164 33.9784 46.7128C36.2015 44.7039 38.3202 43.2086 41.3482 44.7889L62.2971 52.2616Z" fill="#62CBC9"/>
<path d="M32.3953 41.629C29.5396 44.1064 27.1501 47.0578 25.4708 50.4582L0.674316 39.4653C1.84857 36.5276 3.89524 33.1816 7.35678 32.7935L32.3953 41.629Z" fill="#62CBC9"/>
<path d="M22.1998 63.1166L1.34778 52.6113C-0.228297 51.0624 0.99608 46.9555 1.36392 45.0193L23.6902 54.9646C22.908 57.624 22.4527 60.3528 22.1998 63.1166Z" fill="#62CBC9"/>
<path d="M61.3916 80.9856C62.1316 73.8825 65.4921 67.5468 70.2243 62.322L62.0722 58.9329C65.4293 55.5827 70.3217 52.4559 73.2589 58.1653C76.5828 64.6264 72.1524 74.4018 66.9467 78.7309C65.4039 80.0139 63.4607 81.1414 61.3916 80.9856Z" fill="#62CBC9"/>
</g>
<defs>
<clipPath id="clip0_2005_119">
<rect width="111" height="81" fill="white"/>
</clipPath>
</defs>
</svg>
